<svg width="52" height="52" viewBox="0 0 52 52" fill="none" xmlns="http://www.w3.org/2000/svg">
<path d="M26.0002 52C11.6635 52 0 40.3365 0 25.9998C0 11.6635 11.6635 0 26.0002 0C40.3364 0 52 11.6635 52 25.9998C52 40.3365 40.3364 52 26.0002 52Z" fill="white"/>
<path d="M28.737 20.4796C28.3299 20.4796 27.9987 20.1484 27.9987 19.7414C27.9987 19.3343 28.3295 19.0036 28.737 19.0036C29.1436 19.0036 29.4743 19.3343 29.4743 19.7414C29.4743 20.1484 29.1436 20.4796 28.737 20.4796Z" fill="#294C96"/>
<path d="M23.2037 20.4796C22.7961 20.4796 22.4649 20.1484 22.4649 19.7414C22.4649 19.3343 22.7961 19.0036 23.2037 19.0036C23.6102 19.0036 23.941 19.3343 23.941 19.7414C23.9414 20.1484 23.6107 20.4796 23.2037 20.4796Z" fill="#294C96"/>
<path d="M25.6116 19.936C25.4768 19.936 25.3671 19.8262 25.3671 19.6914C25.3671 19.5567 25.4768 19.4474 25.6116 19.4474C25.7463 19.4474 25.8556 19.5567 25.8556 19.6914C25.8556 19.8267 25.7463 19.936 25.6116 19.936Z" fill="#294C96"/>
<path d="M26.3018 19.936C26.167 19.936 26.0572 19.8262 26.0572 19.6914C26.0572 19.5567 26.167 19.4474 26.3018 19.4474C26.4365 19.4474 26.5458 19.5567 26.5458 19.6914C26.5458 19.8267 26.436 19.936 26.3018 19.936Z" fill="#294C96"/>
<path d="M25.9998 24.2924C22.4466 24.2924 19.5553 21.4827 19.5553 18.0298C19.5553 14.576 22.4466 11.7663 25.9998 11.7663C29.5539 11.7663 32.4447 14.576 32.4447 18.0298C32.4447 21.4827 29.5539 24.2924 25.9998 24.2924ZM25.9998 12.7504C22.9888 12.7504 20.5395 15.1187 20.5395 18.0293C20.5395 20.9399 22.9888 23.3082 25.9998 23.3082C29.0107 23.3082 31.4605 20.9399 31.4605 18.0293C31.4605 15.1192 29.0107 12.7504 25.9998 12.7504Z" fill="#294C96"/>
<path d="M25.9997 24.4875C22.3382 24.4875 19.3598 21.5905 19.3598 18.0293C19.3598 14.4676 22.3382 11.5703 25.9997 11.5703C29.6613 11.5703 32.6397 14.4676 32.6397 18.0293C32.6402 21.5905 29.6613 24.4875 25.9997 24.4875ZM25.9997 11.9613C22.5535 11.9613 19.7498 14.6834 19.7498 18.0298C19.7498 21.3752 22.5535 24.0974 25.9997 24.0974C29.446 24.0974 32.2496 21.3757 32.2496 18.0298C32.2496 14.6834 29.446 11.9613 25.9997 11.9613ZM25.9997 23.5038C22.8814 23.5038 20.3439 21.0483 20.3439 18.0298C20.3439 15.0113 22.8809 12.5554 25.9997 12.5554C29.1186 12.5554 31.6556 15.0113 31.6556 18.0298C31.6556 21.0483 29.1186 23.5038 25.9997 23.5038ZM25.9997 12.9459C23.0967 12.9459 20.7345 15.2266 20.7345 18.0298C20.7345 20.833 23.0967 23.1132 25.9997 23.1132C28.9028 23.1132 31.265 20.8325 31.265 18.0298C31.265 15.2266 28.9028 12.9459 25.9997 12.9459Z" fill="#294C96"/>
<path d="M25.9635 26.5175C25.0278 26.5175 24.266 25.7868 24.266 24.8898C24.266 24.5346 24.4253 24.1125 24.6721 23.8147L25.4311 24.4418C25.3298 24.5643 25.2502 24.7607 25.2502 24.8903C25.2502 25.2446 25.5696 25.5334 25.963 25.5334C26.3559 25.5334 26.6758 25.2446 26.6758 24.8903C26.6758 24.7094 26.5957 24.5775 26.5288 24.4988L27.277 23.8595C27.5243 24.1487 27.6605 24.5143 27.6605 24.8898C27.6609 25.7868 26.8991 26.5175 25.9635 26.5175Z" fill="#294C96"/>
<path d="M25.9635 26.7126C24.92 26.7126 24.071 25.8947 24.071 24.8898C24.071 24.4917 24.2481 24.0211 24.5223 23.6903L24.6467 23.54L25.7062 24.4154L25.5819 24.5661C25.5041 24.6604 25.4457 24.8154 25.4457 24.8903C25.4457 25.1371 25.678 25.3378 25.9635 25.3378C26.2485 25.3378 26.4808 25.1371 26.4808 24.8903C26.4808 24.7692 26.4261 24.6792 26.3799 24.6255L26.2537 24.4771L27.2986 23.5848L27.4254 23.7332C27.7029 24.0578 27.856 24.4686 27.856 24.8907C27.8564 25.8947 27.0075 26.7126 25.9635 26.7126ZM24.7089 24.0978C24.5572 24.3409 24.4615 24.6401 24.4615 24.8898C24.4615 25.6794 25.1353 26.322 25.9635 26.322C26.7917 26.322 27.4654 25.6794 27.4654 24.8898C27.4654 24.6255 27.3881 24.3664 27.2454 24.1431L26.7865 24.535C26.8346 24.6297 26.8713 24.7485 26.8713 24.8898C26.8713 25.352 26.4643 25.7279 25.9635 25.7279C25.4627 25.7279 25.0552 25.352 25.0552 24.8898C25.0552 24.7692 25.1009 24.6161 25.1725 24.4809L24.7089 24.0978Z" fill="#294C96"/>
<path d="M27.0235 20.7336C26.713 20.5291 26.3611 20.4603 26.1251 20.5569C26.0643 20.5819 26.0134 20.6148 25.972 20.6497C25.93 20.6148 25.8796 20.5819 25.8188 20.5569C25.5828 20.4603 25.2309 20.5296 24.9204 20.7336C24.7216 20.8631 24.2359 21.1255 24.2359 21.1255C24.2844 21.1675 24.5284 21.3931 24.5916 21.4883C24.8196 21.8313 25.1635 22.2181 25.972 22.2181C26.7804 22.2181 27.1248 21.8313 27.3523 21.4883C27.4164 21.3931 27.6129 21.1679 27.6609 21.1255C27.6609 21.1255 27.2218 20.8631 27.0235 20.7336Z" fill="#294C96"/>
<path d="M33.4128 28.7813C31.7592 28.7813 30.2394 28.4209 28.8967 27.71C27.6152 27.0325 26.8186 26.2146 26.4572 25.7868L27.2087 25.1518C27.5238 25.5244 28.222 26.2396 29.3565 26.8398C31.4959 27.9714 34.1813 28.1033 37.1121 27.1955L37.4037 28.1354C36.0215 28.5636 34.6792 28.7813 33.4128 28.7813Z" fill="#294C96"/>
<path d="M33.4128 28.9768C31.7272 28.9768 30.1772 28.6088 28.8058 27.8828C27.496 27.1908 26.6786 26.3522 26.3079 25.9136L26.1816 25.7647L27.2313 24.8776L27.3575 25.0264C27.6638 25.3887 28.3431 26.0832 29.4474 26.6678C31.5401 27.7745 34.1977 27.8946 37.0541 27.0099L37.2407 26.9519L37.6478 28.2649L37.4607 28.3229C36.0582 28.7563 34.6962 28.9768 33.4128 28.9768ZM26.7342 25.808C27.1314 26.2481 27.871 26.9472 28.9876 27.5375C31.2655 28.7431 34.0866 28.917 37.1583 28.0058L36.983 27.4386C34.095 28.2927 31.4035 28.1438 29.2651 27.0122C28.2366 26.4681 27.5559 25.8302 27.1879 25.4245L26.7342 25.808Z" fill="#294C96"/>
<path d="M30.9649 26.5633C29.8955 26.7861 28.4788 26.7965 27.2011 25.8801L27.775 25.0802C29.1129 26.0394 30.7185 25.6771 31.5712 25.3661C29.968 23.827 28.4703 23.9306 27.4612 24.3221L27.105 23.4034C28.2545 22.9592 30.5174 22.6021 32.7825 25.2149C32.8796 25.327 32.921 25.4773 32.8951 25.6234C32.8692 25.7694 32.7787 25.8971 32.6487 25.9682C32.5903 25.9998 31.9152 26.3654 30.9649 26.5633Z" fill="#294C96"/>
<path d="M29.7904 26.8841C28.7789 26.8841 27.8692 26.5995 27.0876 26.0389L26.9283 25.9249L27.7297 24.8074L27.8885 24.9214C28.4284 25.3082 29.0701 25.5046 29.7946 25.5046C30.3204 25.5046 30.8113 25.401 31.1929 25.286C30.0344 24.2877 28.7695 24.0239 27.5314 24.504L27.3495 24.5746L26.852 23.2913L27.0343 23.2211C27.5917 23.0058 28.1679 22.8965 28.7464 22.8965C30.262 22.8965 31.6697 23.6333 32.9295 25.0867C33.0656 25.2441 33.1231 25.4518 33.0864 25.6573C33.0496 25.8636 32.9238 26.0393 32.7415 26.1392C32.7128 26.1552 32 26.5472 31.0035 26.7545C30.5918 26.8402 30.1833 26.8841 29.7904 26.8841ZM27.4763 25.8316C28.4425 26.4582 29.6312 26.6419 30.9253 26.3719C31.8643 26.1764 32.5262 25.8123 32.5535 25.7967C32.6317 25.7538 32.6869 25.6766 32.7024 25.5885C32.7179 25.4999 32.6934 25.4099 32.6346 25.3421C31.452 23.9782 30.1442 23.2866 28.7464 23.2866C28.279 23.2866 27.8131 23.3648 27.3589 23.5184L27.5742 24.0733C28.9867 23.6013 30.4241 23.9942 31.7064 25.2248L31.9321 25.442L31.6377 25.5494C31.2052 25.7072 30.5343 25.8947 29.7946 25.8947C29.0569 25.8947 28.3949 25.711 27.8225 25.3477L27.4763 25.8316Z" fill="#294C96"/>
<path d="M21.3234 26.5633C22.3929 26.7861 23.8095 26.7965 25.0872 25.8801L24.5134 25.0802C23.1754 26.0394 21.5698 25.6771 20.7171 25.3661C22.3203 23.827 23.818 23.9306 24.8271 24.3221L25.1833 23.4034C24.0338 22.9592 21.771 22.6021 19.5058 25.2149C19.4088 25.327 19.3673 25.4773 19.3932 25.6234C19.4191 25.7694 19.5096 25.8971 19.6396 25.9682C19.6976 25.9998 20.3727 26.3654 21.3234 26.5633Z" fill="#294C96"/>
<path d="M22.4979 26.8841C22.1045 26.8841 21.6965 26.8402 21.2838 26.7545C20.2869 26.5467 19.5746 26.1548 19.5449 26.1383C19.364 26.0393 19.2378 25.8636 19.2015 25.6573C19.1647 25.4528 19.2217 25.245 19.3584 25.0872C20.6186 23.6333 22.0263 22.8965 23.5419 22.8965C24.1205 22.8965 24.6966 23.0058 25.254 23.2211L25.4363 23.2913L24.9388 24.5746L24.7569 24.504C23.5179 24.0239 22.2539 24.2877 21.0954 25.286C21.477 25.401 21.9679 25.5046 22.4937 25.5046C23.2187 25.5046 23.8599 25.3086 24.3998 24.9214L24.5586 24.8074L25.3595 25.9249L25.2007 26.0389C24.4191 26.5995 23.5094 26.8841 22.4979 26.8841ZM23.5414 23.2866C22.1436 23.2866 20.8353 23.9782 19.6528 25.3421C19.5939 25.4099 19.5694 25.4999 19.5854 25.588C19.601 25.6766 19.6566 25.7543 19.7334 25.7962C19.7621 25.8123 20.424 26.1764 21.363 26.3719C22.6567 26.6419 23.8453 26.4586 24.8116 25.8316L24.4649 25.3482C23.8929 25.7114 23.2305 25.8952 22.4927 25.8952C21.7531 25.8952 21.0822 25.7072 20.6497 25.5498L20.3553 25.4424L20.5809 25.2252C21.8628 23.9947 23.2998 23.6018 24.7131 24.0738L24.9284 23.5188C24.4747 23.3648 24.0088 23.2866 23.5414 23.2866Z" fill="#294C96"/>
<path d="M18.5872 28.7813C17.3203 28.7813 15.9776 28.5632 14.5953 28.1354L14.8879 27.1955C17.8183 28.1043 20.5041 27.9719 22.643 26.8398C23.7789 26.2391 24.4757 25.5239 24.7914 25.1518L25.5423 25.7868C25.1824 26.2141 24.3862 27.0311 23.1033 27.71C21.7606 28.4209 20.2408 28.7813 18.5872 28.7813Z" fill="#294C96"/>
<path d="M18.5871 28.9768C17.3033 28.9768 15.9409 28.7568 14.5379 28.3224L14.3508 28.2645L14.7593 26.9514L14.9458 27.0094C17.7999 27.8942 20.4584 27.775 22.5521 26.6674C23.655 26.0841 24.3353 25.3887 24.6425 25.026L24.7687 24.8771L25.8179 25.7637L25.6921 25.9126C25.3237 26.3498 24.5087 27.1875 23.1947 27.8824C21.8237 28.6084 20.2728 28.9768 18.5871 28.9768ZM14.8403 28.0058C17.9158 28.917 20.7359 28.7426 23.0119 27.5375C24.1327 26.9453 24.8705 26.2471 25.2658 25.8085L24.8121 25.425C24.4427 25.8311 23.7615 26.4695 22.7344 27.0127C20.596 28.1448 17.9031 28.2937 15.017 27.439L14.8403 28.0058Z" fill="#294C96"/>
<path d="M29.4644 15.375C28.2979 15.375 27.1738 15.0311 26.2122 14.3805L26.0572 14.2754L26.4506 13.6941L26.6056 13.7991C27.6925 14.5355 29.0493 14.8219 30.3487 14.5963L30.5329 14.5647L30.6545 15.2573L30.4693 15.2888C30.1357 15.3458 29.7975 15.375 29.4644 15.375Z" fill="#294C96"/>
<path d="M29.4639 15.5706C28.2583 15.5706 27.0961 15.2149 26.1029 14.5421L25.9479 14.437C25.9051 14.4078 25.8754 14.3631 25.8655 14.3122C25.8561 14.2613 25.8664 14.2085 25.8956 14.1657L26.289 13.5843C26.3498 13.4953 26.4714 13.4717 26.5604 13.532L26.7154 13.6371C27.7439 14.3339 29.0785 14.6175 30.3157 14.4036L30.4994 14.3716C30.6022 14.3532 30.7067 14.4238 30.7246 14.5303L30.8462 15.2229C30.8551 15.2737 30.8434 15.3265 30.8137 15.3689C30.7835 15.4113 30.7383 15.4401 30.687 15.449L30.5018 15.481C30.1565 15.5404 29.8074 15.5706 29.4639 15.5706ZM26.3281 14.2231C27.5177 15.0264 28.9721 15.3435 30.4278 15.098L30.3737 14.7904C30.0778 14.8413 29.7749 14.8672 29.4733 14.8672C28.4034 14.8672 27.3764 14.5553 26.5029 13.9654L26.3281 14.2231Z" fill="#294C96"/>
<path d="M22.7778 15.7548C21.974 15.7548 21.1962 15.5941 20.466 15.277L20.7458 14.633C21.3884 14.9115 22.072 15.0528 22.7778 15.0528C24.0997 15.0528 25.3539 14.5501 26.3093 13.6371C26.6909 13.2724 27.0132 12.8527 27.2666 12.39L27.3566 12.2265L27.9728 12.5629L27.8833 12.7269C27.5964 13.2522 27.2303 13.7294 26.795 14.1454C25.7081 15.1833 24.2816 15.7548 22.7778 15.7548Z" fill="#294C96"/>
<path d="M22.7778 15.9498C21.9472 15.9498 21.1434 15.784 20.3882 15.4561C20.2893 15.4132 20.2441 15.2983 20.2869 15.1993L20.5663 14.5548C20.6092 14.4559 20.7237 14.4102 20.8231 14.4535C21.4421 14.7216 22.0998 14.8573 22.7778 14.8573C24.0493 14.8573 25.2559 14.3739 26.1745 13.4958C26.5415 13.1452 26.852 12.7415 27.0961 12.2958L27.1856 12.1323C27.2374 12.0376 27.3556 12.0032 27.4503 12.0546L28.0666 12.391C28.1118 12.4159 28.1457 12.4579 28.1603 12.5073C28.1754 12.5573 28.1693 12.6105 28.1443 12.6562L28.0548 12.8202C27.7575 13.3634 27.3797 13.8566 26.9298 14.2858C25.8071 15.359 24.3325 15.9498 22.7778 15.9498ZM20.7241 15.1725C21.3771 15.4292 22.0664 15.5593 22.7778 15.5593C24.2316 15.5593 25.6101 15.0071 26.6598 14.0036C27.0786 13.6036 27.431 13.1452 27.708 12.6397L27.4348 12.4908C27.1714 12.969 26.8379 13.402 26.4445 13.778C25.4528 14.7258 24.1506 15.2479 22.7778 15.2479C22.1116 15.2479 21.4633 15.1263 20.8485 14.886L20.7241 15.1725Z" fill="#294C96"/>
<path d="M25.9635 42.2445C21.0351 42.2445 17.0249 38.2352 17.0249 33.3054C17.0249 31.3903 17.6242 29.5628 18.7586 28.0199L19.6349 28.6639C18.639 30.0184 18.1127 31.624 18.1127 33.3054C18.1127 37.6341 21.6344 41.1567 25.9635 41.1567C30.2931 41.1567 33.8147 37.6336 33.8147 33.3054C33.8147 31.6188 33.2852 30.0099 32.2836 28.6531L33.1584 28.0072C34.2995 29.553 34.9021 31.3842 34.9021 33.3054C34.9021 38.2352 30.8924 42.2445 25.9635 42.2445Z" fill="#294C96"/>
<path d="M25.9635 42.44C20.9272 42.44 16.8299 38.3422 16.8299 33.3059C16.8299 31.3489 17.4423 29.4809 18.6013 27.9045L18.7172 27.7472L19.9082 28.623L19.7923 28.7803C18.8213 30.1009 18.3082 31.6655 18.3082 33.3059C18.3082 37.5276 21.7427 40.9621 25.964 40.9621C30.1852 40.9621 33.6201 37.5276 33.6201 33.3059C33.6201 31.6617 33.1038 30.0929 32.1267 28.7695L32.0108 28.6126L33.1999 27.7349L33.3158 27.8918C34.4814 29.4705 35.0976 31.3428 35.0976 33.3059C35.0976 38.3422 31.0003 42.44 25.9635 42.44ZM18.8024 28.2946C17.7669 29.7692 17.2209 31.4978 17.2209 33.3059C17.2209 38.1274 21.143 42.0495 25.964 42.0495C30.7854 42.0495 34.707 38.1269 34.707 33.3059C34.707 31.4921 34.1577 29.7593 33.1156 28.2819L32.5545 28.696C33.5076 30.0528 34.0102 31.6424 34.0102 33.3059C34.0102 37.7429 30.4005 41.3527 25.9635 41.3527C21.5265 41.3527 17.9172 37.7429 17.9172 33.3059C17.9172 31.6471 18.4166 30.0613 19.3635 28.7078L18.8024 28.2946Z" fill="#294C96"/>
<path d="M25.9635 42.2445C21.0351 42.2445 17.0249 38.2352 17.0249 33.3054C17.0249 31.3903 17.6242 29.5628 18.7586 28.0199L19.6349 28.6639C18.639 30.0184 18.1127 31.624 18.1127 33.3054C18.1127 37.6341 21.6344 41.1567 25.9635 41.1567C30.2931 41.1567 33.8147 37.6336 33.8147 33.3054C33.8147 31.6188 33.2852 30.0099 32.2836 28.6531L33.1584 28.0072C34.2995 29.553 34.9021 31.3842 34.9021 33.3054C34.9021 38.2352 30.8924 42.2445 25.9635 42.2445Z" fill="#294C96"/>
<path d="M25.9635 42.44C20.9272 42.44 16.8299 38.3422 16.8299 33.3059C16.8299 31.3489 17.4423 29.4809 18.6013 27.9045L18.7172 27.7472L19.9082 28.623L19.7923 28.7803C18.8213 30.1009 18.3082 31.6655 18.3082 33.3059C18.3082 37.5276 21.7427 40.9621 25.964 40.9621C30.1852 40.9621 33.6201 37.5276 33.6201 33.3059C33.6201 31.6617 33.1038 30.0929 32.1267 28.7695L32.0108 28.6126L33.1999 27.7349L33.3158 27.8918C34.4814 29.4705 35.0976 31.3428 35.0976 33.3059C35.0976 38.3422 31.0003 42.44 25.9635 42.44ZM18.8024 28.2946C17.7669 29.7692 17.2209 31.4978 17.2209 33.3059C17.2209 38.1274 21.143 42.0495 25.964 42.0495C30.7854 42.0495 34.707 38.1269 34.707 33.3059C34.707 31.4921 34.1577 29.7593 33.1156 28.2819L32.5545 28.696C33.5076 30.0528 34.0102 31.6424 34.0102 33.3059C34.0102 37.7429 30.4005 41.3527 25.9635 41.3527C21.5265 41.3527 17.9172 37.7429 17.9172 33.3059C17.9172 31.6471 18.4166 30.0613 19.3635 28.7078L18.8024 28.2946Z" fill="#294C96"/>
<path d="M37.2534 25.1626C37.1644 24.9699 37.0523 24.7423 36.9331 24.4983C36.6127 23.8439 36.2132 23.0293 36.0799 22.529C35.441 20.1348 35.4519 18.711 35.4627 17.334C35.4712 16.159 35.4797 15.0481 35.0552 13.5344C34.4559 11.3898 32.8046 9.59909 30.4288 8.50279C26.6791 6.56743 25.9456 4.31735 25.9456 4.31735C25.9456 4.31735 25.155 6.56272 21.4167 8.50326C19.0813 9.67965 17.358 11.5594 16.8054 13.5339C16.3809 15.0476 16.3894 16.158 16.3988 17.3325C16.4091 18.7106 16.42 20.1343 15.7811 22.5295C15.5649 23.3412 14.9496 24.6962 14.7192 25.2012C13.0826 27.5276 12.2176 30.2639 12.2176 33.1194C12.2176 40.719 18.4011 46.9015 25.9998 46.9015C33.5994 46.9015 39.7824 40.719 39.7824 33.1194C39.7824 30.2488 38.908 27.497 37.2534 25.1626ZM25.9998 45.8599C18.9753 45.8599 13.2597 40.1452 13.2597 33.1194C13.2597 30.4646 14.0677 27.9205 15.5974 25.7628C15.6158 25.7355 15.6323 25.7081 15.6459 25.6789C16.0304 24.838 16.567 23.6239 16.787 22.798C17.4621 20.2667 17.4503 18.704 17.4395 17.325C17.431 16.1778 17.4235 15.1871 17.8079 13.8147C18.279 12.1309 19.7833 10.5055 21.8365 9.4587C21.8398 9.45681 21.8426 9.4554 21.8459 9.45352L22.2082 9.27826C22.2553 9.2547 22.2972 9.22596 22.3335 9.19299C24.3749 8.0557 25.4189 6.88826 25.9536 5.98277C26.4907 6.95563 27.6171 8.22389 29.9718 9.43844C32.0867 10.4151 33.5358 11.9693 34.0517 13.8152C34.4366 15.188 34.4291 16.1788 34.4211 17.3264C34.4102 18.7049 34.3989 20.2676 35.074 22.7985C35.2337 23.3973 35.6399 24.226 35.9988 24.9572C36.1303 25.2271 36.2528 25.4754 36.3432 25.6761C36.3682 25.7326 36.4031 25.7826 36.4455 25.8245C37.9469 27.97 38.7403 30.4905 38.7403 33.1194C38.7403 40.1452 33.0251 45.8599 25.9998 45.8599Z" fill="#294C96"/>
<path d="M25.9998 47.6826C17.969 47.6826 11.436 41.1496 11.436 33.1193C11.436 30.1287 12.3354 27.2576 14.0375 24.812C14.5605 23.663 14.8926 22.8272 15.0255 22.3283C15.637 20.0363 15.6266 18.6658 15.6167 17.3405C15.6078 16.1613 15.5979 14.9439 16.0525 13.3228C16.6631 11.1415 18.5367 9.07896 21.0643 7.80552C24.4229 6.0619 25.9757 4.31686 25.9757 4.31686C25.9757 4.31686 27.4211 6.07132 30.7864 7.80834C33.3507 8.99086 35.1447 10.955 35.8066 13.3238C36.2613 14.943 36.2518 16.1609 36.2434 17.3387C36.233 18.6653 36.2222 20.0354 36.8346 22.3278C36.9477 22.7509 37.3411 23.5556 37.6284 24.1426L37.6953 24.2802C37.7816 24.4564 37.8626 24.6217 37.9319 24.7701C39.6538 27.2251 40.5631 30.1108 40.5631 33.1198C40.5635 41.1496 34.0305 47.6826 25.9998 47.6826ZM22.1978 10.1508L22.1912 10.1541C20.3298 11.1034 18.9725 12.5502 18.5603 14.0248C18.206 15.2912 18.2126 16.1863 18.2211 17.3189C18.2319 18.7459 18.2446 20.3633 17.5422 22.9992C17.3066 23.8825 16.7526 25.1367 16.3569 26.0035C16.3234 26.0751 16.2876 26.1373 16.2461 26.1981C14.7998 28.239 14.0413 30.6266 14.0413 33.1193C14.0413 39.7136 19.4059 45.0787 26.0002 45.0787C32.5945 45.0787 37.9592 39.7136 37.9592 33.1193C37.9592 30.67 37.2252 28.3181 35.8358 26.3154C35.7496 26.2174 35.6804 26.1081 35.6281 25.9894C35.5579 25.8344 35.4618 25.6379 35.3572 25.4236L35.2964 25.2987C34.9233 24.5388 34.4993 23.6748 34.3188 22.9996C33.6159 20.3642 33.6286 18.7468 33.6395 17.3198C33.648 16.1872 33.6545 15.2916 33.2993 14.0253C32.8461 12.4037 31.5477 11.0266 29.6439 10.1475C28.0185 9.30981 26.7635 8.7699 25.9201 7.74003C25.1527 8.6493 24.112 9.08791 22.7749 9.84076C22.7085 9.89164 22.636 9.93687 22.5596 9.9755L22.1978 10.1508Z" fill="#294C96"/>
<path d="M27.6044 17.7198C27.7542 17.6468 27.9205 17.5794 28.0986 17.5285C28.084 17.5884 28.0741 17.6487 28.0741 17.7109C28.0741 17.855 28.116 17.9888 28.1848 18.1047C27.7787 17.9917 27.4852 17.8018 27.481 17.7994L27.309 18.0571C27.3368 18.0755 27.978 18.4967 28.752 18.4967C28.7718 18.4967 28.7921 18.4962 28.8124 18.4962C29.4503 18.4779 29.8851 18.1302 30.0575 17.9639C30.1145 18.0039 30.1833 18.0557 30.2526 18.1189L30.4603 17.8894C30.4043 17.8385 30.3492 17.7947 30.2983 17.7566C30.4179 17.6548 30.5677 17.513 30.6653 17.3665L30.4066 17.195C30.3086 17.3439 30.1296 17.4975 30.0227 17.5827C29.96 17.5347 29.8978 17.4852 29.8323 17.4447C29.935 17.3519 30.0406 17.2445 30.1174 17.1328L29.862 16.958C29.7767 17.0819 29.6396 17.2068 29.5369 17.292C29.446 17.2539 29.3523 17.2237 29.2571 17.1992C29.3 17.1535 29.3419 17.1064 29.3782 17.0574L29.1285 16.8732C29.0559 16.9712 28.9579 17.064 28.8755 17.1366C28.4317 17.1045 27.9563 17.2049 27.4692 17.4414C27.1573 17.5931 27.032 17.5648 27.0311 17.5644L26.9218 17.8541C26.9726 17.8753 27.1714 17.9304 27.6044 17.7198ZM29.5916 17.9365C29.6137 17.8645 29.6288 17.79 29.6288 17.7109C29.6288 17.7005 29.625 17.6906 29.6246 17.6798C29.6806 17.7123 29.7362 17.7476 29.7918 17.7881C29.7414 17.8324 29.6731 17.8847 29.5916 17.9365ZM28.712 17.4376C28.6216 17.488 28.5575 17.5813 28.5575 17.692C28.5575 17.8541 28.6894 17.9865 28.851 17.9865C29.014 17.9865 29.1459 17.8541 29.1459 17.692C29.1459 17.5973 29.0983 17.5168 29.0286 17.4626C29.111 17.4767 29.1935 17.497 29.2764 17.5238C29.3023 17.5827 29.3193 17.6454 29.3193 17.7104C29.3193 17.9686 29.1096 18.1782 28.851 18.1782C28.5938 18.1782 28.3836 17.9686 28.3836 17.7104C28.3836 17.6157 28.4166 17.529 28.4689 17.4518C28.5485 17.4428 28.63 17.4381 28.712 17.4376Z" fill="#294C96"/>
<path d="M29.6194 16.6763L29.7579 16.3988C28.7869 15.9135 27.8334 16.379 27.7938 16.3988L27.9323 16.6763C27.9403 16.6716 28.7855 16.2603 29.6194 16.6763Z" fill="#294C96"/>
<path d="M21.6278 17.7561C21.5769 17.7942 21.5213 17.8385 21.4657 17.8894L21.6734 18.1188C21.7427 18.0562 21.8115 18.0039 21.8685 17.9638C22.0414 18.1302 22.4758 18.4778 23.1141 18.4967C23.1344 18.4967 23.1542 18.4972 23.1744 18.4972C23.9485 18.4972 24.5892 18.076 24.617 18.0576L24.4455 17.7999C24.4418 17.8027 24.1497 17.9949 23.7412 18.1075C23.8105 17.9912 23.8533 17.8564 23.8533 17.7113C23.8533 17.6496 23.8434 17.5888 23.8288 17.529C24.0064 17.5799 24.1732 17.6473 24.323 17.7198C24.7555 17.9304 24.9548 17.8753 25.0057 17.8541L24.8959 17.5643C24.895 17.5653 24.7692 17.5926 24.4583 17.4414C23.9617 17.2002 23.4863 17.0979 23.0439 17.1309C22.9629 17.0593 22.8668 16.967 22.7985 16.8737L22.5493 17.0579C22.5841 17.1055 22.6246 17.1516 22.6666 17.1959C22.5719 17.2209 22.4781 17.251 22.3872 17.2901C22.285 17.2049 22.1488 17.081 22.0654 16.9585L21.8101 17.1333C21.8864 17.2444 21.991 17.3514 22.0937 17.4442C22.0287 17.4847 21.9665 17.5347 21.9038 17.5832C21.7865 17.4894 21.6127 17.3354 21.5203 17.1959L21.2626 17.3669C21.3587 17.5125 21.5086 17.6543 21.6278 17.7561ZM22.1352 17.7886C22.1903 17.7485 22.2459 17.7132 22.3015 17.6807C22.301 17.6911 22.2977 17.701 22.2977 17.7109C22.2977 17.7895 22.3128 17.8635 22.3344 17.9351C22.2539 17.8838 22.1856 17.8319 22.1352 17.7886ZM23.4576 17.4527C23.5099 17.5304 23.5433 17.6171 23.5433 17.7109C23.5433 17.969 23.3332 18.1787 23.075 18.1787C22.8169 18.1787 22.6067 17.969 22.6067 17.7109C22.6067 17.6463 22.6242 17.5832 22.6501 17.5248C22.7325 17.4979 22.8154 17.4772 22.8974 17.4635C22.8286 17.5172 22.7811 17.5978 22.7811 17.692C22.7811 17.8541 22.913 17.9865 23.0746 17.9865C23.2376 17.9865 23.3695 17.8541 23.3695 17.692C23.3695 17.5813 23.3059 17.488 23.215 17.4381C23.2969 17.4381 23.378 17.4428 23.4576 17.4527Z" fill="#294C96"/>
<path d="M23.9947 16.6763L24.1332 16.3988C24.0931 16.379 23.1396 15.9135 22.1691 16.3988L22.3076 16.6763C23.1382 16.2607 23.9862 16.6716 23.9947 16.6763Z" fill="#294C96"/>
</svg>
